<?xml version="1.0" encoding="utf-8"?>
<!-- Generator: Adobe Illustrator 27.9.0, SVG Export Plug-In . SVG Version: 6.00 Build 0)  -->
<svg version="1.1" id="Layer_1" xmlns="http://www.w3.org/2000/svg" xmlns:xlink="http://www.w3.org/1999/xlink" x="0px" y="0px"
	 viewBox="0 0 710 271" style="enable-background:new 0 0 710 271;" xml:space="preserve">
<g>
	<path d="M673.4,234h-13.7l50-234h-58.8v14.2h25l-45.2,209.6l24.5,47.2l31.9-31.2L701,174h-14.7L673.4,234z M655.8,237.2
		L655.8,237.2l48-225L655.8,237.2z M654.1,3.3h51.6l0,0L654.1,3.3L654.1,3.3z M679.9,11L679.9,11l-45.8,212.4L679.9,11z M697,177.3
		L697,177.3l-8.1,0l-12.9,59.9l12.9-59.9H697z"/>
	<path d="M596.4,87l-37.2,49.3l1.9-9.1L536.7,80l-31.6,31.2L491.2,177h14.7l12.9-59.9h13.7l-31.3,147.3H532l20.7-97.9l37.2-48.8
		l-2.1,9.1h39.9l8.5-39.7H596.4z M598,90.3h34.2l0,0L598,90.3l-39.6,52.5h-3.9l0,0h3.9L598,90.3z M591.9,123.5l2.9-12.6L591.9,123.5
		L591.9,123.5z M508.1,112.8l27.7-27.4l21.9,42.2l-21.9-42.2L508.1,112.8l-12.9,60.9L508.1,112.8z M536.5,113.8L536.5,113.8
		l-31.3,147.3L536.5,113.8z M529.4,261.1L529.4,261.1l20.3-96L529.4,261.1z"/>
	<path d="M92.2,0L50.4,31.4l-9.6,45.8l84.1,116.7l-5.6,26.5l-25.6,29.5H40.4L22,226.4l13.1-61.1H21l-21,99h105.3l41.8-31.7
		l10.2-48.3l-83.8-118l5.3-25.1l24.9-27h49.4l17.3,25.5L157.9,99H172l21-99H92.2z M93.3,3.3H189l0,0L93.3,3.3l-40,30l0,0L93.3,3.3z
		 M31.1,168.6l-12.6,58.7L38.8,253h0l-20.3-25.8L31.1,168.6L31.1,168.6z M153.9,185l-83.8-118l5.8-27.4v0l-5.8,27.4L153.9,185z
		 M173.9,39L173.9,39l-11.9,56.7h0L173.9,39z M169.4,95.8L169.4,95.8l18.9-89L169.4,95.8z"/>
	<path d="M440.1,65.5h39.5l8.1-39.4h-39.5L440.1,65.5z M483.8,29.4L483.8,29.4l-32.9,0l-6.8,32.9h0l6.8-32.9H483.8z"/>
	<path d="M340.3,126.7h24.8l-14.7,69.8l-48.2,40.7h-11.6L322.5,87h-31.2l-25.8,122.3l-33,27.8H221l23.3-110L219.8,80l-31.6,31.2
		L174.3,177H189l12.9-59.9h13.7l-26.3,124.3l25.4,28.7l52.2-43l17.4,43.9l79.7-66.8l17-80.1l7.9-37.1h-40.2L340.3,126.7z
		 M369.1,123.5L369.1,123.5l-15.8,74.8L369.1,123.5z M294,90.3h24.5l0,0L294,90.3l-25.5,120.9L294,90.3z M191.2,112.8l27.7-27.4
		l21.9,42.2L217,240.5l23.8-112.8l-21.9-42.2L191.2,112.8l-12.9,60.9L191.2,112.8z M219.6,113.8L219.6,113.8l-26.8,126.7
		L219.6,113.8z M384.9,90.3L384.9,90.3l-33.5,0l-7.1,33.2h0l7.1-33.2H384.9z"/>
	<path d="M448.6,234H435l25.7-106.7L436.3,80l-31.6,31.2L390.8,177h14.7l12.9-59.9h13.5l-26.1,106.7l24.5,47.2l31.9-31.2l13.9-65.8
		h-14.7L448.6,234z M407.7,112.8l27.7-27.4l21.9,42.2l-26.4,109.6h0l26.4-109.6l-21.9-42.2L407.7,112.8l-12.9,60.9L407.7,112.8z
		 M436.1,113.8L436.1,113.8l-26.8,109.6L436.1,113.8z M472.2,177.3L472.2,177.3l-8.1,0l-12.9,59.9l12.9-59.9H472.2z"/>
</g>
</svg>
