<svg width="45" height="45" viewBox="0 0 45 45" fill="none" xmlns="http://www.w3.org/2000/svg">
<rect width="45" height="45" rx="8" fill="#FF5C00"/>
<path d="M16.6251 30.2375C16.4001 30.2375 16.1751 30.1625 16.0251 29.975C15.6876 29.6375 15.6876 29.1125 16.0251 28.775L27.3876 17.4125H18.3126C17.8626 17.4125 17.4876 17.0375 17.4876 16.5875C17.4876 16.1375 17.8626 15.7625 18.3126 15.7625H29.3751C29.8251 15.7625 30.2001 16.1375 30.2001 16.5875V27.725C30.2001 28.175 29.8251 28.55 29.3751 28.55C28.9251 28.55 28.5501 28.175 28.5501 27.725V18.6875L17.2251 30.0125C17.0751 30.1625 16.8501 30.2375 16.6251 30.2375Z" fill="white"/>
</svg>
