<svg width="45" height="45" viewBox="0 0 45 45" fill="none" xmlns="http://www.w3.org/2000/svg">
<rect width="45" height="45" rx="8" fill="#FF5C00"/>
<path d="M31.6998 17.125H30.5748C30.6873 16.825 30.7623 16.4875 30.7623 16.1125V14.8375C30.7623 13.3375 29.5623 12.1375 28.0623 12.1375H14.3748C12.8748 12.1375 11.6748 13.3375 11.6748 14.8375V16.1125V29.2C11.6748 30.6625 12.8373 31.825 14.2998 31.825H31.7373C33.1998 31.825 34.3623 30.6625 34.3623 29.2V19.75C34.3248 18.325 33.1623 17.125 31.6998 17.125ZM32.6373 26.5375H29.2248C29.0748 26.5375 28.9248 26.3875 28.9248 26.2375V22.75C28.9248 22.6 29.0748 22.45 29.2248 22.45H32.6373V26.5375ZM13.3623 14.8375C13.3623 14.275 13.8123 13.825 14.3748 13.825H28.0998C28.6623 13.825 29.1123 14.275 29.1123 14.8375V16.1125C29.1123 16.675 28.6623 17.125 28.0998 17.125H14.3748C13.8123 17.125 13.3623 16.675 13.3623 16.1125V14.8375ZM31.6998 30.175H14.2998C13.7748 30.175 13.3623 29.7625 13.3623 29.2375V18.625C13.6623 18.7375 13.9998 18.8125 14.3748 18.8125H31.7373C32.2623 18.8125 32.6748 19.225 32.6748 19.75V20.7625H29.2623C28.1748 20.7625 27.2748 21.6625 27.2748 22.75V26.2C27.2748 27.2875 28.1748 28.1875 29.2623 28.1875H32.6748V29.2C32.6373 29.725 32.2248 30.175 31.6998 30.175Z" fill="white"/>
<path d="M30.8746 25.1875C31.2681 25.1875 31.5871 24.8685 31.5871 24.475C31.5871 24.0814 31.2681 23.7625 30.8746 23.7625C30.4811 23.7625 30.1621 24.0814 30.1621 24.475C30.1621 24.8685 30.4811 25.1875 30.8746 25.1875Z" fill="white"/>
</svg>
